<?xml version="1.0" encoding="utf-8"?>
<!-- Generator: Adobe Illustrator 27.0.1, SVG Export Plug-In . SVG Version: 6.00 Build 0)  -->
<svg version="1.1" id="Layer_1" xmlns="http://www.w3.org/2000/svg" xmlns:xlink="http://www.w3.org/1999/xlink" x="0px" y="0px"
	 viewBox="0 0 595.28 419.53" style="enable-background:new 0 0 595.28 419.53;" xml:space="preserve">
<style type="text/css">
	.st0{fill:#FFFFFF;}
</style>
<rect x="52.49" y="19.46" class="st0" width="419.5" height="69.1"/>
<path d="M108.04,53.91c-0.78,0-1.55,0.1-2.29,0.1c-0.18,0-0.28-0.14-0.28-0.28c0-0.36,0.62-0.3,0.96-0.32
	c0.44-0.02,0.94-0.1,1.08-0.5l2.03-5.98c0.04-0.14,0.08-0.28,0.08-0.4c0-0.16-0.04-0.28-0.22-0.28c-0.66,0-1.26,1.2-1.57,1.93
	c-0.1,0.24-0.3,0.34-0.48,0.34c-0.16,0-0.28-0.08-0.28-0.24c0-0.04,0.02-0.1,0.04-0.16c0.6-1.35,1.43-2.85,2.63-2.85
	c0.7,0,1.18,0.42,1.31,1.04c0.58-0.62,1.34-1.04,2.05-1.04c1.38,0,2.13,0.98,2.13,2.27c0,0.42-0.08,0.88-0.24,1.34
	c-0.4,1.16-1.81,2.37-2.93,2.37c-0.54,0-1.04-0.1-1.45-0.34c-0.08-0.04-0.14-0.06-0.22-0.06c-0.14,0-0.28,0.06-0.32,0.18l-0.58,1.71
	c-0.02,0.04-0.02,0.1-0.02,0.14c0,0.4,0.42,0.52,0.88,0.56c0.18,0.02,0.26,0.16,0.26,0.28c0,0.14-0.08,0.28-0.26,0.28
	C109.59,54.01,108.8,53.91,108.04,53.91z M110.73,49.7c0,0.44,0.16,0.76,0.6,0.76c1.28,0,1.93-2.51,1.93-3.55
	c0-0.36-0.14-0.66-0.5-0.66C111.65,46.26,110.73,48.39,110.73,49.7z M115.35,53.91c-0.78,0-1.55,0.1-2.29,0.1
	c-0.18,0-0.28-0.14-0.28-0.28c0-0.36,0.62-0.3,0.96-0.32c0.44-0.02,0.94-0.1,1.08-0.5l2.03-5.98c0.04-0.14,0.08-0.28,0.08-0.4
	c0-0.16-0.04-0.28-0.22-0.28c-0.66,0-1.26,1.2-1.57,1.93c-0.1,0.24-0.3,0.34-0.48,0.34c-0.16,0-0.28-0.08-0.28-0.24
	c0-0.04,0.02-0.1,0.04-0.16c0.6-1.35,1.43-2.85,2.63-2.85c0.7,0,1.18,0.42,1.31,1.04c0.58-0.62,1.34-1.04,2.05-1.04
	c1.38,0,2.13,0.98,2.13,2.27c0,0.42-0.08,0.88-0.24,1.34c-0.4,1.16-1.81,2.37-2.93,2.37c-0.54,0-1.04-0.1-1.45-0.34
	c-0.08-0.04-0.14-0.06-0.22-0.06c-0.14,0-0.28,0.06-0.32,0.18l-0.58,1.71c-0.02,0.04-0.02,0.1-0.02,0.14c0,0.4,0.42,0.52,0.88,0.56
	c0.18,0.02,0.26,0.16,0.26,0.28c0,0.14-0.08,0.28-0.26,0.28C116.91,54.01,116.11,53.91,115.35,53.91z M118.04,49.7
	c0,0.44,0.16,0.76,0.6,0.76c1.28,0,1.93-2.51,1.93-3.55c0-0.36-0.14-0.66-0.5-0.66C118.96,46.26,118.04,48.39,118.04,49.7z
	 M122.67,53.91c-0.78,0-1.55,0.1-2.29,0.1c-0.18,0-0.28-0.14-0.28-0.28c0-0.36,0.62-0.3,0.96-0.32c0.44-0.02,0.94-0.1,1.08-0.5
	l2.03-5.98c0.04-0.14,0.08-0.28,0.08-0.4c0-0.16-0.04-0.28-0.22-0.28c-0.66,0-1.26,1.2-1.57,1.93c-0.1,0.24-0.3,0.34-0.48,0.34
	c-0.16,0-0.28-0.08-0.28-0.24c0-0.04,0.02-0.1,0.04-0.16c0.6-1.35,1.43-2.85,2.63-2.85c0.7,0,1.18,0.42,1.31,1.04
	c0.58-0.62,1.34-1.04,2.05-1.04c1.38,0,2.13,0.98,2.13,2.27c0,0.42-0.08,0.88-0.24,1.34c-0.4,1.16-1.81,2.37-2.93,2.37
	c-0.54,0-1.04-0.1-1.45-0.34c-0.08-0.04-0.14-0.06-0.22-0.06c-0.14,0-0.28,0.06-0.32,0.18l-0.58,1.71c-0.02,0.04-0.02,0.1-0.02,0.14
	c0,0.4,0.42,0.52,0.88,0.56c0.18,0.02,0.26,0.16,0.26,0.28c0,0.14-0.08,0.28-0.26,0.28C124.22,54.01,123.42,53.91,122.67,53.91z
	 M125.36,49.7c0,0.44,0.16,0.76,0.6,0.76c1.28,0,1.93-2.51,1.93-3.55c0-0.36-0.14-0.66-0.5-0.66
	C126.27,46.26,125.36,48.39,125.36,49.7z"/>
<path d="M152.3,53.91c-0.78,0-1.55,0.1-2.29,0.1c-0.18,0-0.28-0.14-0.28-0.28c0-0.36,0.62-0.3,0.96-0.32
	c0.44-0.02,0.94-0.1,1.08-0.5l2.03-5.98c0.04-0.14,0.08-0.28,0.08-0.4c0-0.16-0.04-0.28-0.22-0.28c-0.66,0-1.26,1.2-1.57,1.93
	c-0.1,0.24-0.3,0.34-0.48,0.34c-0.16,0-0.28-0.08-0.28-0.24c0-0.04,0.02-0.1,0.04-0.16c0.6-1.35,1.43-2.85,2.63-2.85
	c0.7,0,1.18,0.42,1.31,1.04c0.58-0.62,1.34-1.04,2.05-1.04c1.38,0,2.13,0.98,2.13,2.27c0,0.42-0.08,0.88-0.24,1.34
	c-0.4,1.16-1.81,2.37-2.93,2.37c-0.54,0-1.04-0.1-1.45-0.34c-0.08-0.04-0.14-0.06-0.22-0.06c-0.14,0-0.28,0.06-0.32,0.18l-0.58,1.71
	c-0.02,0.04-0.02,0.1-0.02,0.14c0,0.4,0.42,0.52,0.88,0.56c0.18,0.02,0.26,0.16,0.26,0.28c0,0.14-0.08,0.28-0.26,0.28
	C153.85,54.01,153.05,53.91,152.3,53.91z M154.99,49.7c0,0.44,0.16,0.76,0.6,0.76c1.28,0,1.93-2.51,1.93-3.55
	c0-0.36-0.14-0.66-0.5-0.66C155.9,46.25,154.99,48.39,154.99,49.7z M159.61,53.91c-0.78,0-1.55,0.1-2.29,0.1
	c-0.18,0-0.28-0.14-0.28-0.28c0-0.36,0.62-0.3,0.96-0.32c0.44-0.02,0.94-0.1,1.08-0.5l2.03-5.98c0.04-0.14,0.08-0.28,0.08-0.4
	c0-0.16-0.04-0.28-0.22-0.28c-0.66,0-1.26,1.2-1.57,1.93c-0.1,0.24-0.3,0.34-0.48,0.34c-0.16,0-0.28-0.08-0.28-0.24
	c0-0.04,0.02-0.1,0.04-0.16c0.6-1.35,1.43-2.85,2.63-2.85c0.7,0,1.18,0.42,1.31,1.04c0.58-0.62,1.34-1.04,2.05-1.04
	c1.38,0,2.13,0.98,2.13,2.27c0,0.42-0.08,0.88-0.24,1.34c-0.4,1.16-1.81,2.37-2.93,2.37c-0.54,0-1.04-0.1-1.45-0.34
	c-0.08-0.04-0.14-0.06-0.22-0.06c-0.14,0-0.28,0.06-0.32,0.18l-0.58,1.71c-0.02,0.04-0.02,0.1-0.02,0.14c0,0.4,0.42,0.52,0.88,0.56
	c0.18,0.02,0.26,0.16,0.26,0.28c0,0.14-0.08,0.28-0.26,0.28C161.16,54.01,160.37,53.91,159.61,53.91z M162.3,49.7
	c0,0.44,0.16,0.76,0.6,0.76c1.28,0,1.93-2.51,1.93-3.55c0-0.36-0.14-0.66-0.5-0.66C163.22,46.25,162.3,48.39,162.3,49.7z"/>
<path d="M196.55,53.91c-0.78,0-1.55,0.1-2.29,0.1c-0.18,0-0.28-0.14-0.28-0.28c0-0.36,0.62-0.3,0.96-0.32
	c0.44-0.02,0.94-0.1,1.08-0.5l2.03-5.98c0.04-0.14,0.08-0.28,0.08-0.4c0-0.16-0.04-0.28-0.22-0.28c-0.66,0-1.26,1.2-1.57,1.93
	c-0.1,0.24-0.3,0.34-0.48,0.34c-0.16,0-0.28-0.08-0.28-0.24c0-0.04,0.02-0.1,0.04-0.16c0.6-1.35,1.43-2.85,2.63-2.85
	c0.7,0,1.18,0.42,1.31,1.04c0.58-0.62,1.34-1.04,2.05-1.04c1.38,0,2.13,0.98,2.13,2.27c0,0.42-0.08,0.88-0.24,1.34
	c-0.4,1.16-1.81,2.37-2.93,2.37c-0.54,0-1.04-0.1-1.45-0.34c-0.08-0.04-0.14-0.06-0.22-0.06c-0.14,0-0.28,0.06-0.32,0.18L198,52.75
	c-0.02,0.04-0.02,0.1-0.02,0.14c0,0.4,0.42,0.52,0.88,0.56c0.18,0.02,0.26,0.16,0.26,0.28c0,0.14-0.08,0.28-0.26,0.28
	C198.1,54.01,197.31,53.91,196.55,53.91z M199.24,49.7c0,0.44,0.16,0.76,0.6,0.76c1.28,0,1.93-2.51,1.93-3.55
	c0-0.36-0.14-0.66-0.5-0.66C200.16,46.25,199.24,48.39,199.24,49.7z"/>
<path d="M235.04,45.33c0.44,0,0.72,0.4,0.82,0.9c0.44-0.52,1.02-0.9,1.61-0.9c0.46,0,0.76,0.42,0.88,0.92
	c0.44-0.54,1.02-0.92,1.59-0.92c0.66,0,1.18,0.7,1.18,1.38c0,0.1-0.02,0.2-0.04,0.3l-0.7,2.97c0,0.04-0.02,0.08-0.02,0.1
	c0,0.1,0.04,0.16,0.14,0.16c0.18,0,0.54-0.22,0.96-0.62c0.08-0.08,0.18-0.12,0.26-0.12c0.12,0,0.22,0.08,0.22,0.2
	c0,0.08-0.06,0.16-0.14,0.24c-0.8,0.76-1.69,1.49-2.61,1.49c-0.4,0-0.64-0.26-0.64-0.64c0-0.08,0-0.14,0.02-0.22l0.78-3.29
	c0.02-0.1,0.04-0.18,0.04-0.28c0-0.2-0.08-0.36-0.28-0.36c-0.32,0-0.66,0.32-0.78,0.64l-1.06,3.65c-0.06,0.2-0.24,0.36-0.44,0.36
	h-0.82c-0.2,0-0.32-0.16-0.26-0.36l1.04-3.65c0.04-0.12,0.06-0.22,0.06-0.32c0-0.18-0.08-0.32-0.26-0.32c-0.32,0-0.7,0.3-0.82,0.64
	l-1.24,3.65c-0.06,0.2-0.28,0.36-0.48,0.36h-0.82c-0.2,0-0.3-0.16-0.24-0.36l1.26-3.65c0.04-0.1,0.04-0.2,0.04-0.3
	c0-0.2-0.06-0.34-0.26-0.34c-0.58,0-1.08,1.06-1.32,1.73c-0.08,0.22-0.3,0.34-0.46,0.34c-0.14,0-0.24-0.08-0.24-0.22
	c0-0.04,0.02-0.08,0.04-0.12C232.59,46.86,233.71,45.33,235.04,45.33z M241.5,54.09c-0.78,0-1.55,0.1-2.29,0.1
	c-0.18,0-0.28-0.14-0.28-0.28c0-0.36,0.62-0.3,0.96-0.32c0.44-0.02,0.94-0.1,1.08-0.5l2.03-5.98c0.04-0.14,0.08-0.28,0.08-0.4
	c0-0.16-0.04-0.28-0.22-0.28c-0.66,0-1.26,1.2-1.57,1.93c-0.1,0.24-0.3,0.34-0.48,0.34c-0.16,0-0.28-0.08-0.28-0.24
	c0-0.04,0.02-0.1,0.04-0.16c0.6-1.35,1.43-2.85,2.63-2.85c0.7,0,1.18,0.42,1.31,1.04c0.58-0.62,1.34-1.04,2.05-1.04
	c1.38,0,2.13,0.98,2.13,2.27c0,0.42-0.08,0.88-0.24,1.34c-0.4,1.16-1.81,2.37-2.93,2.37c-0.54,0-1.04-0.1-1.45-0.34
	c-0.08-0.04-0.14-0.06-0.22-0.06c-0.14,0-0.28,0.06-0.32,0.18l-0.58,1.71c-0.02,0.04-0.02,0.1-0.02,0.14c0,0.4,0.42,0.52,0.88,0.56
	c0.18,0.02,0.26,0.16,0.26,0.28c0,0.14-0.08,0.28-0.26,0.28C243.05,54.19,242.26,54.09,241.5,54.09z M244.19,49.89
	c0,0.44,0.16,0.76,0.6,0.76c1.28,0,1.93-2.51,1.93-3.55c0-0.36-0.14-0.66-0.5-0.66C245.1,46.44,244.19,48.57,244.19,49.89z"/>
<path d="M276.15,46.58c0.44,0,0.72,0.4,0.82,0.9c0.44-0.52,1.02-0.9,1.61-0.9c0.46,0,0.76,0.42,0.88,0.92
	c0.44-0.54,1.02-0.92,1.59-0.92c0.66,0,1.18,0.7,1.18,1.38c0,0.1-0.02,0.2-0.04,0.3l-0.7,2.97c0,0.04-0.02,0.08-0.02,0.1
	c0,0.1,0.04,0.16,0.14,0.16c0.18,0,0.54-0.22,0.96-0.62c0.08-0.08,0.18-0.12,0.26-0.12c0.12,0,0.22,0.08,0.22,0.2
	c0,0.08-0.06,0.16-0.14,0.24c-0.8,0.76-1.69,1.49-2.61,1.49c-0.4,0-0.64-0.26-0.64-0.64c0-0.08,0-0.14,0.02-0.22l0.78-3.29
	c0.02-0.1,0.04-0.18,0.04-0.28c0-0.2-0.08-0.36-0.28-0.36c-0.32,0-0.66,0.32-0.78,0.64l-1.06,3.65c-0.06,0.2-0.24,0.36-0.44,0.36
	h-0.82c-0.2,0-0.32-0.16-0.26-0.36l1.04-3.65c0.04-0.12,0.06-0.22,0.06-0.32c0-0.18-0.08-0.32-0.26-0.32c-0.32,0-0.7,0.3-0.82,0.64
	l-1.24,3.65c-0.06,0.2-0.28,0.36-0.48,0.36h-0.82c-0.2,0-0.3-0.16-0.24-0.36l1.26-3.65c0.04-0.1,0.04-0.2,0.04-0.3
	c0-0.2-0.06-0.34-0.26-0.34c-0.58,0-1.08,1.06-1.32,1.73c-0.08,0.22-0.3,0.34-0.46,0.34c-0.14,0-0.24-0.08-0.24-0.22
	c0-0.04,0.02-0.08,0.04-0.12C273.7,48.11,274.82,46.58,276.15,46.58z M286.73,50.9c-0.6,1.97-2.41,5.08-4.34,5.08
	c-0.9,0-1.73-0.54-1.73-1.38c0-0.78,0.34-1.53,1.04-1.53c0.48,0,0.88,0.4,0.88,0.88c0,0.6-0.76,0.48-0.76,1.08
	c0,0.2,0.22,0.22,0.46,0.22h0.12c0.96,0,1.22-1.16,1.45-2.15l1.35-5.44h-0.98c-0.22,0-0.38-0.16-0.38-0.38
	c0-0.22,0.16-0.38,0.38-0.38h1.2c0.64-1.91,2.35-3.81,4.24-3.81c0.9,0,1.73,0.54,1.73,1.38c0,0.78-0.34,1.53-1.04,1.53
	c-0.48,0-0.88-0.38-0.88-0.86c0-0.6,0.76-0.5,0.76-1.1c0-0.2-0.2-0.22-0.44-0.22h-0.14c-1.24,0-1.4,1.75-1.71,3.07h1.1
	c0.22,0,0.38,0.16,0.38,0.38c0,0.22-0.16,0.38-0.38,0.38h-1.31L286.73,50.9z"/>
<path d="M322.98,53.06c-0.6,1.97-2.41,5.08-4.34,5.08c-0.9,0-1.73-0.54-1.73-1.38c0-0.78,0.34-1.53,1.04-1.53
	c0.48,0,0.88,0.4,0.88,0.88c0,0.6-0.76,0.48-0.76,1.08c0,0.2,0.22,0.22,0.46,0.22h0.12c0.96,0,1.22-1.16,1.46-2.15l1.35-5.44h-0.98
	c-0.22,0-0.38-0.16-0.38-0.38c0-0.22,0.16-0.38,0.38-0.38h1.2c0.64-1.91,2.35-3.81,4.24-3.81c0.9,0,1.73,0.54,1.73,1.38
	c0,0.78-0.34,1.53-1.04,1.53c-0.48,0-0.88-0.38-0.88-0.86c0-0.6,0.76-0.5,0.76-1.1c0-0.2-0.2-0.22-0.44-0.22h-0.14
	c-1.24,0-1.39,1.75-1.71,3.07h1.1c0.22,0,0.38,0.16,0.38,0.38c0,0.22-0.16,0.38-0.38,0.38h-1.32L322.98,53.06z"/>
<path d="M360.43,53.06c-0.6,1.97-2.41,5.08-4.34,5.08c-0.9,0-1.73-0.54-1.73-1.38c0-0.78,0.34-1.53,1.04-1.53
	c0.48,0,0.88,0.4,0.88,0.88c0,0.6-0.76,0.48-0.76,1.08c0,0.2,0.22,0.22,0.46,0.22h0.12c0.96,0,1.22-1.16,1.46-2.15l1.35-5.44h-0.98
	c-0.22,0-0.38-0.16-0.38-0.38c0-0.22,0.16-0.38,0.38-0.38h1.2c0.64-1.91,2.35-3.81,4.24-3.81c0.9,0,1.73,0.54,1.73,1.38
	c0,0.78-0.34,1.53-1.04,1.53c-0.48,0-0.88-0.38-0.88-0.86c0-0.6,0.76-0.5,0.76-1.1c0-0.2-0.2-0.22-0.44-0.22h-0.14
	c-1.24,0-1.39,1.75-1.71,3.07h1.1c0.22,0,0.38,0.16,0.38,0.38c0,0.22-0.16,0.38-0.38,0.38h-1.32L360.43,53.06z M366.73,53.06
	c-0.6,1.97-2.41,5.08-4.34,5.08c-0.9,0-1.73-0.54-1.73-1.38c0-0.78,0.34-1.53,1.04-1.53c0.48,0,0.88,0.4,0.88,0.88
	c0,0.6-0.76,0.48-0.76,1.08c0,0.2,0.22,0.22,0.46,0.22h0.12c0.96,0,1.22-1.16,1.46-2.15l1.35-5.44h-0.98
	c-0.22,0-0.38-0.16-0.38-0.38c0-0.22,0.16-0.38,0.38-0.38h1.2c0.64-1.91,2.35-3.81,4.24-3.81c0.9,0,1.73,0.54,1.73,1.38
	c0,0.78-0.34,1.53-1.04,1.53c-0.48,0-0.88-0.38-0.88-0.86c0-0.6,0.76-0.5,0.76-1.1c0-0.2-0.2-0.22-0.44-0.22h-0.14
	c-1.24,0-1.39,1.75-1.71,3.07h1.1c0.22,0,0.38,0.16,0.38,0.38c0,0.22-0.16,0.38-0.38,0.38h-1.32L366.73,53.06z"/>
<path d="M397.88,53.06c-0.6,1.97-2.41,5.08-4.34,5.08c-0.9,0-1.73-0.54-1.73-1.38c0-0.78,0.34-1.53,1.04-1.53
	c0.48,0,0.88,0.4,0.88,0.88c0,0.6-0.76,0.48-0.76,1.08c0,0.2,0.22,0.22,0.46,0.22h0.12c0.96,0,1.22-1.16,1.46-2.15l1.35-5.44h-0.98
	c-0.22,0-0.38-0.16-0.38-0.38c0-0.22,0.16-0.38,0.38-0.38h1.2c0.64-1.91,2.35-3.81,4.24-3.81c0.9,0,1.73,0.54,1.73,1.38
	c0,0.78-0.34,1.53-1.04,1.53c-0.48,0-0.88-0.38-0.88-0.86c0-0.6,0.76-0.5,0.76-1.1c0-0.2-0.2-0.22-0.44-0.22h-0.14
	c-1.24,0-1.39,1.75-1.71,3.07h1.1c0.22,0,0.38,0.16,0.38,0.38c0,0.22-0.16,0.38-0.38,0.38h-1.32L397.88,53.06z M404.18,53.06
	c-0.6,1.97-2.41,5.08-4.34,5.08c-0.9,0-1.73-0.54-1.73-1.38c0-0.78,0.34-1.53,1.04-1.53c0.48,0,0.88,0.4,0.88,0.88
	c0,0.6-0.76,0.48-0.76,1.08c0,0.2,0.22,0.22,0.46,0.22h0.12c0.96,0,1.22-1.16,1.46-2.15l1.35-5.44h-0.98
	c-0.22,0-0.38-0.16-0.38-0.38c0-0.22,0.16-0.38,0.38-0.38h1.2c0.64-1.91,2.35-3.81,4.24-3.81c0.9,0,1.73,0.54,1.73,1.38
	c0,0.78-0.34,1.53-1.04,1.53c-0.48,0-0.88-0.38-0.88-0.86c0-0.6,0.76-0.5,0.76-1.1c0-0.2-0.2-0.22-0.44-0.22h-0.14
	c-1.24,0-1.39,1.75-1.71,3.07h1.1c0.22,0,0.38,0.16,0.38,0.38c0,0.22-0.16,0.38-0.38,0.38h-1.32L404.18,53.06z M410.47,53.06
	c-0.6,1.97-2.41,5.08-4.34,5.08c-0.9,0-1.73-0.54-1.73-1.38c0-0.78,0.34-1.53,1.04-1.53c0.48,0,0.88,0.4,0.88,0.88
	c0,0.6-0.76,0.48-0.76,1.08c0,0.2,0.22,0.22,0.46,0.22h0.12c0.96,0,1.22-1.16,1.46-2.15l1.35-5.44h-0.98
	c-0.22,0-0.38-0.16-0.38-0.38c0-0.22,0.16-0.38,0.38-0.38h1.2c0.64-1.91,2.35-3.81,4.24-3.81c0.9,0,1.73,0.54,1.73,1.38
	c0,0.78-0.34,1.53-1.04,1.53c-0.48,0-0.88-0.38-0.88-0.86c0-0.6,0.76-0.5,0.76-1.1c0-0.2-0.2-0.22-0.44-0.22h-0.14
	c-1.24,0-1.39,1.75-1.71,3.07h1.1c0.22,0,0.38,0.16,0.38,0.38c0,0.22-0.16,0.38-0.38,0.38h-1.32L410.47,53.06z"/>
</svg>
