<?xml version="1.0" encoding="utf-8"?>
<!-- Generator: Adobe Illustrator 25.4.1, SVG Export Plug-In . SVG Version: 6.00 Build 0)  -->
<svg version="1.1" id="Layer_1" xmlns="http://www.w3.org/2000/svg" xmlns:xlink="http://www.w3.org/1999/xlink" x="0px" y="0px"
	 viewBox="0 0 419.5 595.3" style="enable-background:new 0 0 419.5 595.3;" xml:space="preserve">
<style type="text/css">
	.st0{fill:#FFFFFF;}
</style>
<rect class="st0" width="419.5" height="69.1"/>
<path d="M399.4,45.4H20.1c-0.1,0-0.2-0.1-0.2-0.2S20,45,20.1,45h379.3c0.1,0,0.2,0.1,0.2,0.2S399.6,45.4,399.4,45.4z"/>
<path d="M399.4,40.4H20.1c-0.1,0-0.2-0.1-0.2-0.2S20,40,20.1,40h379.3c0.1,0,0.2,0.1,0.2,0.2S399.6,40.4,399.4,40.4z"/>
<path d="M399.4,35.4H20.1c-0.1,0-0.2-0.1-0.2-0.2S20,35,20.1,35h379.3c0.1,0,0.2,0.1,0.2,0.2S399.6,35.4,399.4,35.4z"/>
<path d="M399.4,30.4H20.1c-0.1,0-0.2-0.1-0.2-0.2S20,30,20.1,30h379.3c0.1,0,0.2,0.1,0.2,0.2S399.6,30.4,399.4,30.4z"/>
<path d="M399.4,25.4H20.1c-0.1,0-0.2-0.1-0.2-0.2S20,25,20.1,25h379.3c0.1,0,0.2,0.1,0.2,0.2S399.6,25.4,399.4,25.4z"/>
<path d="M31.6,34.9c3.1,0,5.1,2.6,5.1,5.2c0,1.5-0.7,3.1-2.1,4.2c-0.4,0.3-0.9,0.6-1.5,0.7c0.1,0.7,0.1,1.4,0.1,2.1
	c0,0.4,0,0.8,0,1.2c-0.1,2.4-1.8,4.5-4.1,4.5c-2.2,0-3.9-1.8-3.9-3.9c0-1.2,1.1-2.1,2.2-2.1s1.9,0.9,1.9,2.1c0,1-0.9,1.9-1.9,1.9
	c-0.2,0-0.4,0-0.6-0.1c0.5,0.8,1.4,1.3,2.3,1.3c1.9,0,3.1-1.8,3.2-3.8c0-0.4,0-0.7,0-1.1c0-0.6,0-1.2-0.1-1.8
	c-0.6,0.1-1.2,0.2-1.8,0.2c-3.7,0-6.6-3.4-6.6-7.5c0-3.5,2.6-6.1,4.9-8.8c-0.4-1.2-0.7-2.5-0.9-3.8c-0.1-1-0.1-2.1-0.1-3.1
	c0-2.3,1.1-4.5,3-5.8c0.1,0,0.1-0.1,0.2-0.1s0.1,0,0.2,0.1c1.4,1.7,2.7,4.9,2.7,7.1c0,2.8-1.7,5.1-3.6,7.3c0.4,1.4,0.8,2.8,1.1,4.1
	C31.4,34.9,31.5,34.9,31.6,34.9z M30.6,44.5c0.6,0,1.1,0,1.6-0.1c-0.3-2.5-0.7-4.9-1.3-7.3c-1.6,0.2-2.5,1.2-2.5,2.4
	c0,0.9,0.5,1.8,1.6,2.5c0.1,0.1,0.1,0.2,0.1,0.3c0,0.2-0.2,0.4-0.4,0.4c-0.1,0-0.1,0-0.2,0c-1.6-0.9-2.3-2.3-2.3-3.7
	c0-1.8,1.2-3.5,3.2-3.9c-0.3-1.2-0.6-2.3-0.9-3.5c-2.1,2.4-4.2,4.8-4.2,8C25.3,42.3,27.9,44.5,30.6,44.5z M28.7,24.5
	c0,1.5,0.4,2.7,0.7,3.9c1.6-1.9,2.9-3.9,2.9-6.5c0-1.1-0.1-1.6-0.4-2.6C30,20.3,28.7,22.3,28.7,24.5z M35.3,40.9
	c0-1.8-1.3-3.6-3.4-3.8c0.5,2.3,0.9,4.6,1.2,7.1C34.4,43.7,35.3,42.3,35.3,40.9z"/>
<rect x="398.7" y="25.2" width="0.9" height="19.9"/>
<path d="M71.6,47c-1.1,0.6-2.3,0.8-3.5,0.8s-2.4-0.2-3.5-0.8c-0.8-0.4-1.5-1.1-1.5-1.9s0.7-1.5,1.5-1.9c1.1-0.6,2.3-0.8,3.5-0.8
	s2.4,0.2,3.5,0.8c0.8,0.4,1.5,1.1,1.5,1.9S72.3,46.6,71.6,47z M66.1,44.6c0,1.5,1.1,2.7,2.7,2.7c1,0,1.4-0.9,1.4-1.8
	c0-1.5-1.1-2.7-2.7-2.7C66.5,42.9,66.1,43.7,66.1,44.6z"/>
<path d="M147.7,49.2c-0.2,0-0.4-0.2-0.4-0.4v-2.9l-1.7,0.6v3.1c0,0.2-0.2,0.4-0.4,0.4s-0.4-0.2-0.4-0.4v-2.9l-0.6,0.2h-0.1
	c-0.2,0-0.4-0.2-0.4-0.4v-1.2c0-0.2,0.1-0.3,0.3-0.4l0.9-0.3v-3.2l-0.6,0.2h-0.1c-0.2,0-0.4-0.2-0.4-0.4V40c0-0.2,0.1-0.3,0.3-0.4
	l0.9-0.3v-3.1c0-0.2,0.2-0.4,0.4-0.4s0.4,0.2,0.4,0.4v2.9l1.7-0.6v-3.1c0-0.2,0.2-0.4,0.4-0.4s0.4,0.2,0.4,0.4v2.9l0.6-0.2h0.1
	c0.2,0,0.4,0.2,0.4,0.4v1.2c0,0.2-0.1,0.3-0.3,0.4l-0.9,0.3v3.2l0.6-0.2h0.1c0.2,0,0.4,0.2,0.4,0.4V45c0,0.2-0.1,0.3-0.3,0.4
	l-0.9,0.3v3.1C148.1,49,147.9,49.2,147.7,49.2z M145.7,44.5l1.7-0.6v-3.2l-1.7,0.6V44.5z"/>
<path d="M232.3,31c0.2-0.1,0.4-0.2,0.5-0.2s0.4,0.1,0.5,0.2l-0.1,6.9c0.5-0.4,1.2-0.7,1.8-0.7c1,0,1.8,1,1.8,2
	c0,1.6-1.7,2.3-2.9,3.4c-0.3,0.3-0.5,0.8-0.9,0.8c-0.3,0-0.5-0.2-0.5-0.5L232.3,31z M233.4,40.6v0.2c0,0.4,0,0.9,0.1,1.3
	c0.9-0.8,1.9-1.6,1.9-2.8c0-0.7-0.3-1.3-0.9-1.3c-0.6,0-1,0.6-1.1,1.3V40.6z"/>
<path d="M343.2,39.6c-1.1,0.6-2.3,0.8-3.5,0.8s-2.4-0.2-3.5-0.8c-0.8-0.4-1.5-1.1-1.5-1.9c0-0.9,0.7-1.5,1.5-1.9
	c1.1-0.6,2.3-0.8,3.5-0.8s2.4,0.2,3.5,0.8c0.8,0.4,1.5,1.1,1.5,1.9C344.6,38.5,343.9,39.2,343.2,39.6z M337.7,37.2
	c0,1.5,1.1,2.7,2.7,2.7c1,0,1.4-0.9,1.4-1.8c0-1.5-1.1-2.7-2.7-2.7C338.1,35.4,337.7,36.3,337.7,37.2z M334.6,42.1
	c-1.1,0.6-2.3,0.8-3.5,0.8s-2.4-0.2-3.5-0.8c-0.8-0.4-1.5-1.1-1.5-1.9s0.7-1.5,1.5-1.9c1.1-0.6,2.3-0.8,3.5-0.8s2.4,0.2,3.5,0.8
	c0.8,0.4,1.5,1.1,1.5,1.9S335.4,41.6,334.6,42.1z M329.1,39.7c0,1.5,1.1,2.7,2.7,2.7c1,0,1.4-0.9,1.4-1.8c0-1.5-1.1-2.7-2.7-2.7
	C329.5,37.9,329.1,38.8,329.1,39.7z"/>
<path d="M112,50.6H98.2c-0.3,0-0.5-0.2-0.5-0.5s0.2-0.5,0.5-0.5H112c0.3,0,0.5,0.2,0.5,0.5S112.3,50.6,112,50.6z"/>
<path d="M270.6,40.8c-0.5,0.7-1.3,1.2-2,1.9c-0.3,0.3-0.4,0.8-0.8,0.8c-0.3,0-0.5-0.2-0.5-0.5L267.2,31c0.2-0.1,0.4-0.2,0.5-0.2
	s0.4,0.1,0.5,0.2l-0.1,6.9c0.3-0.4,0.9-0.7,1.4-0.7c0.4,0,0.8,0.2,1,0.4l-0.1-6.6c0.2-0.1,0.4-0.2,0.5-0.2s0.4,0.1,0.5,0.2l-0.1,6.9
	c0.5-0.4,1.1-0.7,1.7-0.7c1.1,0,1.8,0.9,1.8,2c0,1.6-1.7,2.4-2.9,3.4c-0.3,0.3-0.5,0.8-0.9,0.8c-0.3,0-0.5-0.2-0.5-0.5L270.6,40.8z
	 M268.1,40.8c0,0.5,0,0.9,0.1,1.4c0.8-0.8,1.4-1.7,1.4-2.8c0-0.6-0.1-1.3-0.7-1.3c-0.6,0-0.8,0.6-0.8,1.3l0,1.3V40.8z M271.5,40.6
	c0,0.1,0,0.1,0,0.2c0,0.4,0,0.9,0.1,1.3c0.9-0.7,1.7-1.6,1.7-2.8c0-0.7-0.2-1.3-0.8-1.3c-0.6,0-1,0.6-1,1.3L271.5,40.6z"/>
<path d="M185,43.2c0.1,0,0.2,0.1,0.2,0.2l0.2,1.7c0,0.1-0.1,0.2-0.2,0.2h0l-1.7-0.2c-0.1,0-0.2-0.1-0.2-0.2c0-0.7-0.1-1.3-0.6-1.8
	c-0.5,0.5-0.6,1.1-0.6,1.8c0,0.1-0.1,0.2-0.2,0.2l-1.8,0.2h0c-0.1,0-0.2-0.1-0.2-0.2l0.2-1.7c0-0.1,0.1-0.2,0.2-0.2
	c0.7,0,1.3-0.1,1.8-0.6c-0.5-0.5-1.1-0.6-1.8-0.6c-0.1,0-0.2-0.1-0.2-0.2l-0.2-1.7c0-0.1,0.1-0.2,0.2-0.2h0l1.8,0.2
	c0.1,0,0.2,0.1,0.2,0.2c0,0.7,0.1,1.3,0.6,1.8c0.5-0.5,0.6-1.1,0.6-1.8c0-0.1,0.1-0.2,0.2-0.2l1.7-0.2h0c0.1,0,0.2,0.1,0.2,0.2
	l-0.2,1.7c0,0.1-0.1,0.2-0.2,0.2c-0.7,0-1.3,0.1-1.8,0.6C183.7,43.1,184.3,43.2,185,43.2z"/>
<path d="M312.5,32.5c0.2,0,0.3,0.1,0.5,0.1l-0.1,3.6l2.1-0.4h0.1c0.2,0,0.4,0.1,0.4,0.3l0.1,11.4c-0.2,0.1-0.3,0.1-0.5,0.1
	s-0.3-0.1-0.5-0.1l0.1-3.6l-2.1,0.4h-0.1c-0.2,0-0.4-0.1-0.4-0.3L312,32.7C312.1,32.6,312.3,32.5,312.5,32.5z M312.9,38.2l-0.1,4.1
	l1.8-0.3l0.1-4.1L312.9,38.2z"/>
</svg>
